<svg width="20" height="20" viewBox="0 0 20 20" fill="none" xmlns="http://www.w3.org/2000/svg">
<g id="Attach / 20 / Regular">
<path id="&#240;&#159;&#142;&#168;Color" d="M4.82865 10.4852L10.4855 4.82839C11.6571 3.65681 13.5566 3.65681 14.7281 4.82839C15.8997 5.99996 15.8997 7.89945 14.7281 9.07103L8.01063 15.7885C7.42485 16.3743 6.4751 16.3743 5.88931 15.7885C5.30352 15.2028 5.30352 14.253 5.88931 13.6672L11.8997 7.65681C12.095 7.46155 12.095 7.14497 11.8997 6.94971C11.7045 6.75444 11.3879 6.75444 11.1926 6.94971L5.1822 12.9601C4.20589 13.9364 4.20589 15.5193 5.1822 16.4956C6.15852 17.472 7.74143 17.472 8.71774 16.4956L15.4353 9.77813C16.9974 8.21604 16.9974 5.68338 15.4353 4.12128C13.8732 2.55918 11.3405 2.55918 9.7784 4.12128L4.12154 9.77813C3.92628 9.9734 3.92628 10.29 4.12154 10.4852C4.31681 10.6805 4.63339 10.6805 4.82865 10.4852Z" fill="#605E5C"/>
</g>
</svg>
